/* XPM */
static char * xpm_data[] = {
"64 64 39 1",
"0 c None",
"1 c #880000ff",
"2 c #b00000ff",
"3 c #e00000ff",
"4 c #fc0000ff",
"5 c #fc5454ff",
"6 c #fcfc54ff",
"7 c #fc7c7cff",
"8 c #fcb8b8ff",
"9 c #fc4040ff",
"a c #c80000ff",
"b c #fcfcfcff",
"c c #a80000ff",
"d c #fc9c9cff",
"e c #9cdcdcff",
"f c #d8f4f4ff",
"g c #b8e8e8ff",
"h c #48c0c0ff",
"i c #7c7c7cff",
"j c #545454ff",
"k c #2c2c2cff",
"l c #202020ff",
"m c #005858ff",
"n c #007c7cff",
"o c #00a4a4ff",
"p c #383838ff",
"q c #009898ff",
"r c #74c8c8ff",
"s c #004040ff",
"t c #707070ff",
"u c #007474ff",
"v c #484848ff",
"w c #006c6cff",
"x c #20b4b4ff",
"y c #008484ff",
"z c #008c8cff",
"A c #000000ff",
"B c #20b0b0ff",
"C c #007070ff",
"0000000000000000000000000000000000000000000000000000000000000000",
"0000000000000000000000000000000000000000000000000000000000000000",
"0000000000000000000000000000000000000000000000000000000000000000",
"0000000000000000000000000000000000000000000000000000000000000000",
"0000000000000000000000000000000000000000000000000000000000000000",
"0000000000000000000000000000000000000000000000000000000000000000",
"0000000000000000000000000000000000000000000000000000000000000000",
"0000000000000000000000000000000000000000000000000000000000000000",
"0000000000000000000000000000000000000000000000000000000000000000",
"0000000000000000000000000000000000000000000000000000000000000000",
"0000000000000000000000000000000000000000000000000000000000000000",
"0000000000000000000000000000000000000000000000000000000000000000",
"0000000000000000000000000000000000000000000000000000000000000000",
"0000000000000000000000000000000000000000000000000000000000000000",
"0000000000000000000000000000000000000000000000000000000000000000",
"0000000000000000000000000000000000000000000000000000000000000000",
"0000000000000000000000000000000000000000000000000000000000000000",
"0000000000000000000000000000000000000000000000000000000000000000",
"0000000000000000000000000000000000000000000000000000000000000000",
"0000000000000000000000000000000000000000000000000000000000000000",
"0000000000000000000000000000000000000000000000000000000000000000",
"0000000000000000000000000000000000000000000000000000000000000000",
"0000000000000000000000000000000000000000000000000000000000000000",
"0000000000000000000000000000000000000000000000000000000000000000",
"0000000000000000000000000000000000000000000000000000000000000000",
"0000000000000000000000000000000000000000000000000000000000000000",
"0000000000000000000000000000000010000000000000000000000000000000",
"0000000000000000000000000000000221000000000000000000000000000000",
"0000000000000000000000000000000232000000000000000000000000000000",
"0000000000000000000000000000001343200000000000000000000000000000",
"0000000000000000000000000000002353200000000000000000000000000000",
"0000000000000000000000000000023565320000000000000000000000000000",
"0000000000000000000000000000234767422000000000000000000000000000",
"0000000000000000000000000002347867932200000000000000000000000000",
"0000000000000000000000000012398666793200000000000000000000000000",
"0000000000000000000000000023976666679320000000000000000000000000",
"00000000000000000000000001a47866b6685422002110000000000000000000",
"0000000000000000000000000a39766bbb667932223310000000000000000000",
"00000000000000000000112aaa37866bbb668543334420000000000000000000",
"0000000000000000000014444447866bbb666793559920000000000000000000",
"000000000000000000003c95599766bbbbb66d75777920000000000000000000",
"000000000000000000000358d77d66bbbbb668d7767300000000000000000000",
"00000000000000000000003668886eeebeee6686687200000000000000000000",
"00000000000000000000003c6b66ebfghbbfg66b683200000000000000000000",
"0000000000000000000000398b6iiiiiiiiiii6b683000000000000000000000",
"0000000000000000000023956ijjjjjjjjjjjjji683222000000000000000000",
"000000000000000011223957ijkkkkkkkkkkkkkji67545322200000000000000",
"00000000000001233955786ijklkmnonpnompklkji8779443322111000000000",
"00000000001233955778666jklmqrebhnbgomsklkj6668744211000000000000",
"0000000000000112233335jkpthqrfbhqbfhusupkki685332100000000000000",
"0000000000000000022338jvtehqefbhqbbrowmupkv683300000000000000000",
"0000000000000000000376kjxeqrgbfhqfbronsymkk668300000000000000000",
"0000000000000000003768kobhqefbghqgbghzsyupk666730000000000000000",
"0000000000000000029770AegBqefbghqebghowmymp588873000000000000000",
"0000000000000000133333ibhqrgbbggerozyyusyup357775200000000000000",
"0000000000000000112000ebhqegbgbgerxqCCusmym233322110000000000000",
"000000000000000000000geqeeefgfbgerxBwmrgxwsm00000000000000000000",
"00000000000000000000hefgbfgbgbbgerxBumyBzBzssw000000000000000000",
"0000000000000000000zebebbggbgbbgerxBzmmqBzCulsw00000000000000000",
"000000000000000000zegfebfgfggbbgerxBqwmyBqnwslsw0000000000000000",
"00000000000000000zhgbegbfgbgfbbgerxBoumCqBzCwslsw000000000000000",
"0000000000000000zheffefbggbgbbbgerxBoummyBqnwmsls000000000000000",
"0000000000000000hefbegbfgfggbbbgerxBBzwmCqBznwsllw00000000000000",
"000000000000000hegfbefbfgbgfbbbgerxBBzumCyBzywwsls00000000000000",
};
