/* XPM */
static char * xpm_data[] = {
"64 64 26 1",
"0 c None",
"1 c #fcfcfcff",
"2 c #b8e8e8ff",
"3 c #008484ff",
"4 c #a8a8a8ff",
"5 c #006c6cff",
"6 c #005858ff",
"7 c #004040ff",
"8 c #000000ff",
"9 c #2c2c2cff",
"a c #202020ff",
"b c #545454ff",
"c c #007474ff",
"d c #008c8cff",
"e c #007070ff",
"f c #74c8c8ff",
"g c #9cdcdcff",
"h c #00a4a4ff",
"i c #48c0c0ff",
"j c #009898ff",
"k c #20b0b0ff",
"l c #20b4b4ff",
"m c #009c9cff",
"n c #00b4b4ff",
"o c #d8f4f4ff",
"p c #007c7cff",
"0000000000000000000000000000000000000000000000000000000000000000",
"0000000000000000000000000000000000000000000000000000000000000000",
"0000000000000000000000000000000000000000000000000000000000000000",
"0000000000000000000000000000000000000000000000000000000000000000",
"0000000000000000000000000000000000000000000000000000000000000000",
"0000000000000000000000000000000000000000000000000000000000000000",
"0000000000000000000000000000000000000000000000000000000000000000",
"0000000000000000000000000000000000000000000000000000000000000000",
"0000000000000000000000000000000000000000000000000000000000000000",
"0000000000000000000000000000000000000000000000000000000000000000",
"0000000000000000000000000000000000000000000000000000000000000000",
"0000000000000000000000000000000000000000000000000000000000000000",
"0000000000000000000000000000000000000000000000000000000000000000",
"0000000000000000000000000000000000000000000000000000000000000000",
"0000000000000000000000000000000000000000000000000000000000000000",
"0000000000000000000000000000000000000000000000000000000000000000",
"0000000000000000000000000000000000000000000000000000000000000000",
"0000000000000000000000000000000000000000000000000000000000000000",
"0000000000000000000000000000000000000000000000000000000000000000",
"0000000000000000000000000000000000000000000000000000000000000000",
"0000000000000000000000000000000000000000000000000000000000000000",
"0000000000000000000000000000000000000000000000000000000000000000",
"0000000000000000000000000000000000000000000000000000000000000000",
"0000000000000000000000000000000000000000000000000000000000000000",
"0000000000000000000000000000000000000000000000000000000000000000",
"0000000000000000000000000000000000000000000000000000000000000000",
"0000000000000000000000000000000000000000000000000000000000000000",
"0000000000000000000000000000000000000000000000000000000000000000",
"0000000000000000000000000000000000000000000000000000000000000000",
"0000000000000000000000000000000000000000000000000000000000000000",
"0000000000000000000000000000000000000000000000000000000000000000",
"0000000000000000000000000000000000000000000000000000000000000000",
"0000000000000000000000000000000000000000000000000000000000000000",
"0000000000000000000000000000000000000000000000000000000000000000",
"0000000000000000000000000000000000000000000000000000000000000000",
"0000000000000000000000000000000000000000000000000000000000000000",
"0000000000000000000000000000000000000000000000000000000000000000",
"0000000000000000000000000000000000000000000000000000000000000000",
"0000000000000000000000000000000000000000000000000000000000000000",
"0000000000000000000000000000000000000000000000000000000000000000",
"0000000000000000000000000000000000000000000000000000000000000000",
"0000000000000000000000000000000000000000000000000000000000000000",
"0000000000000000000000000000000123000000000000000000000000000000",
"0000000000000000000000000000043123540000000000000000000000000000",
"0000000000000000000000000006666666666600000000000000000000000000",
"0000000000000000000000000677777777777776000000000000000000000000",
"0000000000000000000000006788888888888889700000000000000000000000",
"00000000000000000000000678a9bb93cb9bb9a8a70000000000000000000000",
"0000000000000000000000078a7cd5e2f376db9a8a0000000000000000000000",
"000000000000000000000078b7c2g3h1g376id99987000000000000000000000",
"000000000000000000000076ibi1gjf1gj69dhb978a000000000000000000000",
"00000000000000000000008iid12fkg1ghb93l39b98000000000000000000000",
"000000000000000000000081mi12lig1gkc9eikb968000000000000000000000",
"0000000000000000000000i2m21gji212kdb6dib9b6000000000000000000000",
"00000000000000000000001nf12g1122gfhd33ld966000000000000000000000",
"000000000000000000000i2m21gi1212gfljeellc9b000000000000000000000",
"0000000000000000000002gngggo2o12gflk56f2l57600000000000000000000",
"00000000000000000000igo21o212112gflkc63kdkd775000000000000000000",
"0000000000000000000dg1g112212112gflkd66jkdeca7500000000000000000",
"000000000000000000dg2og1o2o22112gflkj563kjp57a750000000000000000",
"00000000000000000di21g21o212o112gflkhc6ejkde57a75000000000000000",
"0000000000000000digoogo122121112gflkhc663kjp567a7000000000000000",
"0000000000000000igo1g21o2o221112gflkkd56ejkdp57aa500000000000000",
"000000000000000ig2o1go1o212o1112gflkkdc6e3kd3557a700000000000000",
};
